<svg width="101" height="101" viewBox="0 0 101 101" fill="none" xmlns="http://www.w3.org/2000/svg">
<rect width="101" height="101" rx="50.5" fill="#F3F4F8"/>
<path d="M63.5289 43.9075C63.9039 44.1896 64.2305 44.3353 64.5616 44.3944L65.8414 50.3418L69.4913 44.9768L68.7675 44.5128L68.613 44.4172C69.3236 42.6789 69.8532 40.8633 69.3501 40.108C68.7189 39.2069 66.1812 36.4812 66.0047 36.2764C65.0866 35.2617 63.8555 35.6713 63.1758 36.6222C62.8888 37.0773 62.5137 37.4777 62.3197 37.9055C62.3239 37.901 60.2893 41.5275 63.5289 43.9075Z" fill="#171717"/>
<path d="M34.5426 80.9124C33.4569 78.6191 35.156 74.9512 35.2002 74.9603C35.3723 74.9968 35.6812 75.0469 35.6812 75.0469L35.9813 75.8931C35.9813 75.8931 36.074 75.9024 36.1357 75.9159C41.1581 76.9126 46.8381 76.685 47.9415 75.8658C50.6645 73.8637 53.3389 68.6807 54.1821 66.1234C54.1821 66.1234 59.3015 63.0472 63.3573 63.5342C66.2966 63.8754 67.4926 66.5603 67.4838 70.4918C67.678 70.4918 68.7593 70.6102 68.7593 70.6102C68.7593 70.6102 68.6665 71.0378 68.6489 71.2336C68.6489 71.4384 68.1855 71.9434 68.2297 72.1346C68.5519 73.6634 69.2492 75.3426 70.7806 76.0889C76.1163 74.7783 81.2181 69.6227 81.2181 69.6227L79.2057 67.8206C77.6433 69.1403 75.2292 70.2552 73.6273 70.4327C73.6273 70.4327 75.2248 58.2237 73.5389 56.5856C71.4823 54.5606 68.393 53.5276 66.5967 53.8008L67.8236 59.4342L45.5451 64.9767C45.5451 64.9767 44.3049 61.5728 43.9386 60.4307C43.9739 63.2247 42.116 67.6797 41.3435 68.5625C39.4988 70.8102 36.1843 70.8057 33.9688 70.2962L31.9915 69.782C31.9915 69.782 30.3189 72.1892 29.7012 73.568C26.9782 79.8293 32.5653 82.4414 32.5653 82.4414H76.3061C75.4102 82.1001 65.5905 79.1831 56.7285 79.1831C48.661 79.1924 40.0724 79.5745 34.5426 80.9124Z" fill="#171717"/>
<path d="M40.0143 57.6957C40.0187 57.6957 40.0275 57.6957 40.0406 57.6957C40.045 57.6957 40.0494 57.6957 40.0494 57.6957C40.0627 57.6957 40.0759 57.6957 40.0936 57.6957C40.098 57.6957 40.1069 57.6957 40.1113 57.6957C40.129 57.6957 40.1466 57.6957 40.1687 57.691C40.182 57.691 40.1908 57.691 40.2041 57.691C40.226 57.691 40.2481 57.6865 40.2746 57.6865C40.2878 57.6865 40.3011 57.6865 40.3143 57.682C40.3453 57.682 40.3762 57.6774 40.4069 57.6774C40.4202 57.6774 40.4334 57.6774 40.4511 57.6729C40.4865 57.6684 40.5262 57.6684 40.5614 57.6637C40.5746 57.6637 40.5879 57.6637 40.6011 57.6592C40.6498 57.6547 40.6984 57.6501 40.7512 57.6456C40.76 57.6456 40.7644 57.6456 40.7733 57.6456C40.9586 57.6319 41.1705 57.6091 41.4001 57.5863C41.4131 57.5863 41.4264 57.5818 41.4397 57.5818C41.5015 57.5728 41.5678 57.5683 41.6295 57.559C41.6471 57.559 41.6648 57.5545 41.6825 57.5545C41.7443 57.5455 41.8104 57.541 41.8723 57.5317C41.8944 57.5272 41.912 57.5272 41.9339 57.5227C41.9958 57.5137 42.0576 57.5045 42.1237 57.4954C42.1458 57.4909 42.1679 57.4909 42.19 57.4864C42.2519 57.4772 42.3179 57.4681 42.3842 57.4591C42.4063 57.4544 42.4284 57.4544 42.4503 57.4499C42.521 57.4408 42.5917 57.4271 42.6622 57.4181C42.6799 57.4135 42.6931 57.4135 42.7108 57.409C43.9421 57.2088 45.244 56.8765 45.809 56.3533C45.8311 56.3395 47.7949 52.7994 45.9767 51.4161C45.4294 50.9336 44.5953 51.1111 41.8988 51.2113C41.5985 51.2248 41.3206 51.2293 41.0647 51.2293C40.941 51.2293 40.8263 51.2293 40.716 51.2248C40.7072 51.2248 40.6939 51.2248 40.6851 51.2248C40.5746 51.2203 40.4688 51.2203 40.3674 51.2158C40.3585 51.2158 40.3497 51.2158 40.3409 51.2158C40.2348 51.2113 40.1378 51.2066 40.0406 51.1975C40.0362 51.1975 40.0362 51.1975 40.032 51.1975C39.2374 51.143 38.7432 51.0338 38.4785 50.9609H38.474C38.4431 50.9519 38.4166 50.9427 38.3945 50.9382C38.3901 50.9382 38.3857 50.9336 38.3857 50.9336C38.3636 50.9246 38.3459 50.9199 38.3282 50.9154C38.3238 50.9154 38.3194 50.9109 38.315 50.9109C38.3019 50.9064 38.2887 50.9018 38.2798 50.8973C38.2754 50.8973 38.271 50.8926 38.2666 50.8926C38.2622 50.8881 38.2533 50.8881 38.2489 50.8836C38.2445 50.8836 38.2401 50.8791 38.2401 50.8791L40.4379 49.2089L38.6152 41.6825C38.6152 41.6825 54.9711 38.083 57.5397 37.2413C57.5529 37.2368 57.5706 37.2322 57.5839 37.2275L57.5795 37.2095C55.2844 35.0433 51.842 33.3824 46.1886 33.9785L45.0279 32.8409C45.7075 32.4724 46.0385 32.4268 46.6077 31.8307C44.8248 28.0402 43.9994 23.9267 43.9687 21.6604C45.2882 21.2828 50.5269 20.8141 51.6434 14.8484C51.6434 14.8484 47.9053 17.474 45.0146 15.9496C40.129 13.3695 36.691 18.0565 36.691 18.0565C36.691 18.0565 33.3809 18.2021 33.4604 20.2589C33.681 26.3885 35.5964 30.8753 39.2905 36.1036C34.7844 38.1513 32.5424 40.14 30.446 43.3161C27.6479 47.5254 26.2446 53.1223 26.2446 53.1223C26.2446 53.1223 30.1548 58.0187 39.2993 59.0472C39.4891 58.2963 39.8554 58.1051 40.0143 57.6957Z" fill="#171717"/>
</svg>
