<svg width="40" height="36" viewBox="0 0 40 36" fill="none" xmlns="http://www.w3.org/2000/svg">
<path d="M22.9375 0.9375H7.17102C6.45531 0.9375 5.87508 1.51773 5.87508 2.23344C5.87508 2.94914 6.45531 3.52937 7.17102 3.52937H13.9074C12.4888 4.41811 11.2075 5.50932 10.1043 6.76844H1.29594C0.580234 6.76852 0 7.34883 0 8.06453C0 8.78023 0.580234 9.36047 1.29594 9.36047H8.22953C6.73438 11.8961 5.875 14.8494 5.875 17.9999C5.875 21.6659 7.03742 25.0654 9.01258 27.8497H5.33555C4.61984 27.8497 4.03961 28.4299 4.03961 29.1456C4.03961 29.8613 4.61984 30.4416 5.33555 30.4416H11.2745C12.0845 31.2014 12.9662 31.8809 13.9074 32.4704H1.42961C0.713906 32.4704 0.133672 33.0506 0.133672 33.7663C0.133672 34.482 0.713906 35.0623 1.42961 35.0623H22.9375C32.3459 35.0623 39.9999 27.408 39.9999 17.9998C39.9999 8.59164 32.3458 0.9375 22.9375 0.9375ZM22.9375 32.4705C14.9584 32.4705 8.46703 25.9791 8.46703 18C8.46703 10.0209 14.9584 3.52945 22.9375 3.52945C30.9166 3.52945 37.408 10.0209 37.408 17.9999C37.408 25.979 30.9166 32.4705 22.9375 32.4705Z" fill="#D10014"/>
<path d="M22.9375 7.41467C17.1007 7.41467 12.3521 12.1633 12.3521 18.0001C12.3521 21.4808 14.0411 24.5743 16.6424 26.5047C16.6662 26.5249 16.6899 26.5452 16.7156 26.5637C16.7445 26.5847 16.7741 26.6044 16.804 26.6226C18.5356 27.8579 20.6532 28.5854 22.9375 28.5854C25.2219 28.5854 27.3394 27.8579 29.071 26.6226C29.101 26.6044 29.1306 26.5847 29.1595 26.5637C29.1851 26.5451 29.2089 26.5247 29.2327 26.5047C31.8339 24.5743 33.5229 21.4808 33.5229 18.0001C33.5229 12.1633 28.7743 7.41467 22.9375 7.41467ZM24.2335 10.1123C26.7625 10.5264 28.896 12.1311 30.0374 14.3305L26.6814 15.421C26.0985 14.5773 25.2383 13.9399 24.2335 13.6406V10.1123H24.2335ZM24.8942 18C24.8942 19.0789 24.0164 19.9566 22.9375 19.9566C21.8586 19.9566 20.9809 19.079 20.9809 18C20.9809 16.9211 21.8586 16.0433 22.9375 16.0433C24.0164 16.0433 24.8942 16.9211 24.8942 18ZM21.6415 10.1123V13.6406C20.6366 13.9399 19.7765 14.5773 19.1935 15.421L15.8377 14.3305C16.9791 12.1311 19.1126 10.5263 21.6415 10.1123ZM17.2553 23.6162C15.8273 22.1715 14.9441 20.187 14.9441 18C14.9441 17.5905 14.9752 17.188 15.0349 16.7949L18.3918 17.8857C18.3909 17.9238 18.3889 17.9616 18.3889 18C18.3889 19.0387 18.7396 19.9967 19.3279 20.7633L17.2553 23.6162ZM22.9375 25.9934C21.6484 25.9934 20.4298 25.6864 19.3504 25.1419L21.4235 22.2887C21.8974 22.4565 22.4068 22.5487 22.9375 22.5487C23.4682 22.5487 23.9776 22.4565 24.4515 22.2887L26.5246 25.1419C25.4453 25.6862 24.2267 25.9934 22.9375 25.9934ZM28.6197 23.6162L26.5471 20.7634C27.1353 19.9968 27.4861 19.0388 27.4861 18.0001C27.4861 17.9617 27.4842 17.9239 27.4832 17.8858L30.8401 16.795C30.9006 17.1938 30.931 17.5967 30.9309 18.0001C30.931 20.187 30.0478 22.1714 28.6197 23.6162Z" fill="#D10014"/>
</svg>
